<svg width="24" height="25" viewBox="0 0 24 25" fill="none" xmlns="http://www.w3.org/2000/svg">
<path d="M23.0393 0.779419H0.959268C0.428268 0.779419 -0.000732422 1.20842 -0.000732422 1.73942V23.8194C-0.000732422 24.3504 0.428268 24.7794 0.959268 24.7794H23.0393C23.5703 24.7794 23.9993 24.3504 23.9993 23.8194V1.73942C23.9993 1.20842 23.5703 0.779419 23.0393 0.779419ZM22.0793 22.8594H16.5563V15.4854H19.6763L20.1443 11.8644H16.5563V9.55142C16.5563 8.50142 16.8473 7.78742 18.3503 7.78742H20.2673V4.54742C19.9343 4.50242 18.7973 4.40342 17.4713 4.40342C14.7053 4.40342 12.8123 6.09242 12.8123 9.19142V11.8614H9.68627V15.4824H12.8153V22.8594H1.91927V2.69942H22.0793V22.8594Z" fill="#8A91A8"/>
</svg>
