<svg width="24" height="25" viewBox="0 0 24 25" fill="none" xmlns="http://www.w3.org/2000/svg">
<path fill-rule="evenodd" clip-rule="evenodd" d="M7.052 0.851419C8.33163 0.79251 8.73963 0.779419 11.9993 0.779419C15.2589 0.779419 15.6669 0.793601 16.9454 0.851419C18.224 0.909237 19.0967 1.11324 19.8604 1.40887C20.66 1.71106 21.3854 2.18342 21.9854 2.79433C22.5964 3.39324 23.0676 4.1176 23.3687 4.91833C23.6655 5.68196 23.8684 6.55469 23.9273 7.83106C23.9862 9.11287 23.9993 9.52087 23.9993 12.7794C23.9993 16.0391 23.9851 16.4471 23.9273 17.7267C23.8694 19.0031 23.6655 19.8758 23.3687 20.6394C23.0676 21.4402 22.5956 22.1658 21.9854 22.7656C21.3854 23.3765 20.66 23.8478 19.8604 24.1489C19.0967 24.4456 18.224 24.6485 16.9476 24.7074C15.6669 24.7663 15.2589 24.7794 11.9993 24.7794C8.73963 24.7794 8.33163 24.7652 7.052 24.7074C5.77563 24.6496 4.9029 24.4456 4.13927 24.1489C3.33845 23.8477 2.61289 23.3757 2.01309 22.7656C1.40259 22.1663 0.930156 21.4411 0.628722 20.6405C0.333086 19.8769 0.130177 19.0041 0.0712676 17.7278C0.0123585 16.446 -0.000732422 16.038 -0.000732422 12.7794C-0.000732422 9.51978 0.0134494 9.11178 0.0712676 7.83324C0.129086 6.55469 0.333086 5.68196 0.628722 4.91833C0.930602 4.11769 1.4034 3.39249 2.01418 2.79324C2.61313 2.18287 3.33796 1.71045 4.13818 1.40887C4.90181 1.11324 5.77454 0.910328 7.0509 0.851419H7.052ZM16.8484 3.01142C15.5829 2.9536 15.2033 2.9416 11.9993 2.9416C8.79527 2.9416 8.41563 2.9536 7.15018 3.01142C5.97963 3.06487 5.34472 3.26015 4.92145 3.42487C4.36181 3.64306 3.96145 3.9016 3.54145 4.3216C3.14332 4.70893 2.83692 5.18045 2.64472 5.7016C2.47999 6.12487 2.28472 6.75978 2.23127 7.93033C2.17345 9.19578 2.16145 9.57542 2.16145 12.7794C2.16145 15.9834 2.17345 16.3631 2.23127 17.6285C2.28472 18.7991 2.47999 19.434 2.64472 19.8572C2.83672 20.3776 3.14327 20.85 3.54145 21.2372C3.92872 21.6354 4.40109 21.942 4.92145 22.134C5.34472 22.2987 5.97963 22.494 7.15018 22.5474C8.41563 22.6052 8.79418 22.6172 11.9993 22.6172C15.2044 22.6172 15.5829 22.6052 16.8484 22.5474C18.0189 22.494 18.6538 22.2987 19.0771 22.134C19.6367 21.9158 20.0371 21.6572 20.4571 21.2372C20.8553 20.85 21.1618 20.3776 21.3538 19.8572C21.5185 19.434 21.7138 18.7991 21.7673 17.6285C21.8251 16.3631 21.8371 15.9834 21.8371 12.7794C21.8371 9.57542 21.8251 9.19578 21.7673 7.93033C21.7138 6.75978 21.5185 6.12487 21.3538 5.7016C21.1356 5.14196 20.8771 4.7416 20.4571 4.3216C20.0697 3.9235 19.5982 3.6171 19.0771 3.42487C18.6538 3.26015 18.0189 3.06487 16.8484 3.01142ZM10.4665 16.4787C11.3225 16.835 12.2757 16.8831 13.1632 16.6148C14.0507 16.3464 14.8175 15.7782 15.3327 15.0073C15.8478 14.2364 16.0793 13.3106 15.9877 12.3879C15.896 11.4652 15.4869 10.603 14.8302 9.94851C14.4115 9.53012 13.9053 9.20976 13.348 9.01049C12.7907 8.81122 12.1961 8.73799 11.6071 8.79609C11.0181 8.85419 10.4493 9.04216 9.9416 9.34647C9.43395 9.65078 9.00008 10.0639 8.67123 10.556C8.34239 11.0481 8.12675 11.607 8.03983 12.1925C7.95291 12.7779 7.99689 13.3754 8.16858 13.9418C8.34028 14.5082 8.63543 15.0295 9.03278 15.4682C9.43013 15.9069 9.9198 16.252 10.4665 16.4787ZM7.63781 8.41796C8.21057 7.84521 8.89053 7.39088 9.63887 7.0809C10.3872 6.77093 11.1893 6.61139 11.9993 6.61139C12.8093 6.61139 13.6113 6.77093 14.3597 7.0809C15.108 7.39088 15.788 7.84521 16.3607 8.41796C16.9335 8.99072 17.3878 9.67068 17.6978 10.419C18.0078 11.1674 18.1673 11.9694 18.1673 12.7794C18.1673 13.5894 18.0078 14.3915 17.6978 15.1398C17.3878 15.8882 16.9335 16.5681 16.3607 17.1409C15.204 18.2976 13.6351 18.9474 11.9993 18.9474C10.3634 18.9474 8.79454 18.2976 7.63781 17.1409C6.48108 15.9841 5.83124 14.4153 5.83124 12.7794C5.83124 11.1436 6.48108 9.57469 7.63781 8.41796ZM19.5353 7.52996C19.6772 7.39608 19.7908 7.23507 19.8694 7.05648C19.948 6.87789 19.99 6.68535 19.9928 6.49025C19.9957 6.29516 19.9593 6.10147 19.886 5.92067C19.8126 5.73986 19.7037 5.57561 19.5658 5.43764C19.4278 5.29967 19.2636 5.19079 19.0827 5.11744C18.9019 5.04409 18.7083 5.00776 18.5132 5.0106C18.3181 5.01344 18.1255 5.05541 17.9469 5.134C17.7683 5.21259 17.6073 5.32621 17.4734 5.46815C17.2131 5.74418 17.0705 6.11082 17.076 6.49025C17.0816 6.86968 17.2348 7.23201 17.5031 7.50034C17.7714 7.76866 18.1337 7.92185 18.5132 7.92738C18.8926 7.93291 19.2592 7.79035 19.5353 7.52996Z" fill="#8A91A8"/>
</svg>
