<svg width="24" height="25" viewBox="0 0 24 25" fill="none" xmlns="http://www.w3.org/2000/svg">
<path d="M22.0703 0.779419H1.92827C0.863268 0.779419 -0.000732422 1.64342 -0.000732422 2.70842V22.8504C-0.000732422 23.9154 0.863268 24.7794 1.92827 24.7794H22.0703C23.1353 24.7794 23.9993 23.9154 23.9993 22.8504V2.70842C23.9993 1.64342 23.1353 0.779419 22.0703 0.779419ZM22.0703 22.8594C8.63627 22.8564 1.91927 22.8534 1.91927 22.8504C1.92227 9.41642 1.92527 2.69942 1.92827 2.69942C15.3623 2.70242 22.0793 2.70542 22.0793 2.70842C22.0763 16.1424 22.0733 22.8594 22.0703 22.8594ZM3.55727 9.77642H7.11827V21.2304H3.55727V9.77642ZM5.33927 8.21042C6.47627 8.21042 7.40327 7.28642 7.40327 6.14642C7.40327 5.87537 7.34988 5.60698 7.24616 5.35656C7.14243 5.10614 6.9904 4.87861 6.79874 4.68695C6.60708 4.49529 6.37954 4.34326 6.12913 4.23953C5.87871 4.13581 5.61032 4.08242 5.33927 4.08242C5.06822 4.08242 4.79983 4.13581 4.54941 4.23953C4.29899 4.34326 4.07146 4.49529 3.8798 4.68695C3.68814 4.87861 3.53611 5.10614 3.43238 5.35656C3.32865 5.60698 3.27527 5.87537 3.27527 6.14642C3.27227 7.28642 4.19627 8.21042 5.33927 8.21042ZM12.9083 15.5634C12.9083 14.0694 13.1933 12.6234 15.0443 12.6234C16.8683 12.6234 16.8953 14.3304 16.8953 15.6594V21.2304H20.4533V14.9484C20.4533 11.8644 19.7873 9.49142 16.1843 9.49142C14.4533 9.49142 13.2923 10.4424 12.8153 11.3424H12.7673V9.77642H9.35027V21.2304H12.9083V15.5634Z" fill="#8A91A8"/>
</svg>
