<svg width="17" height="18" viewBox="0 0 17 18" fill="none" xmlns="http://www.w3.org/2000/svg">
<path d="M8.39419 0.963344H8.25653L8.25143 1.10091L8.11621 4.74936C8.03832 6.85089 6.35208 8.53628 4.2505 8.61309L0.495514 8.75033L0.357875 8.75536V8.8931V9.10618V9.24392L0.495514 9.24895L4.2505 9.38619C6.35208 9.463 8.03832 11.1484 8.11621 13.2499L8.25143 16.8984L8.25653 17.0359H8.39419H8.60727H8.74493L8.75003 16.8984L8.88525 13.2499C8.96314 11.1484 10.6494 9.463 12.751 9.38619L16.5059 9.24895L16.6436 9.24392V9.10618V8.8931V8.75536L16.5059 8.75033L12.751 8.61309C10.6494 8.53628 8.96314 6.85089 8.88525 4.74936L8.75003 1.10091L8.74493 0.963344H8.60727H8.39419ZM8.50073 5.62543C8.88944 7.29942 10.2068 8.61433 11.8819 8.99964C10.2068 9.38495 8.88944 10.6999 8.50073 12.3738C8.11203 10.6999 6.79469 9.38495 5.11953 8.99964C6.79469 8.61433 8.11203 7.29942 8.50073 5.62543Z" fill="white" stroke="white" stroke-width="0.285714"/>
</svg>
