<svg width="16" height="17" viewBox="0 0 16 17" fill="none" xmlns="http://www.w3.org/2000/svg">
<path d="M7.42725 0.998047H8.5701V3.85519H7.42725V0.998047Z" fill="#8A91A8"/>
<path d="M11.2495 4.9415L13.2529 2.9375L14.0609 3.74607L12.0575 5.7495L11.2495 4.9415Z" fill="#8A91A8"/>
<path d="M13.1421 8.42578H15.9992V9.56864H13.1421V8.42578Z" fill="#8A91A8"/>
<path d="M11.2495 13.056L12.0575 12.248L14.0609 14.2515L13.2529 15.06L11.2495 13.056Z" fill="#8A91A8"/>
<path d="M7.42725 14.1406H8.5701V16.9978H7.42725V14.1406Z" fill="#8A91A8"/>
<path d="M1.93896 14.2515L3.94239 12.248L4.75039 13.0566L2.74696 15.06L1.93896 14.2515Z" fill="#8A91A8"/>
<path d="M-0.000488281 8.42578H2.85665V9.56864H-0.000488281V8.42578Z" fill="#8A91A8"/>
<path d="M1.93896 3.74607L2.74696 2.9375L4.75039 4.9415L3.94239 5.7495L1.93896 3.74607Z" fill="#8A91A8"/>
<path d="M6.51222 6.77173C6.9527 6.47741 7.47058 6.32031 8.00035 6.32031C8.71075 6.32031 9.39206 6.60252 9.89439 7.10485C10.3967 7.60718 10.6789 8.28848 10.6789 8.99888C10.6789 9.52865 10.5218 10.0465 10.2275 10.487C9.93317 10.9275 9.51484 11.2708 9.02539 11.4736C8.53595 11.6763 7.99738 11.7293 7.47779 11.626C6.95819 11.5226 6.48092 11.2675 6.10631 10.8929C5.73171 10.5183 5.4766 10.041 5.37325 9.52145C5.26989 9.00185 5.32294 8.46328 5.52567 7.97384C5.72841 7.48439 6.07173 7.06606 6.51222 6.77173Z" stroke="#8A91A8" stroke-width="1.5"/>
</svg>
