<svg width="26" height="24" viewBox="0 0 26 24" fill="none" xmlns="http://www.w3.org/2000/svg">
<path d="M0.999268 19.4712C2.21758 20.1451 11.0357 25.2281 17.3066 21.3104C23.577 17.3927 23.2308 10.643 23.2308 7.54955C23.7993 6.35966 24.9993 5.7546 24.9993 2.53355C23.8207 3.62239 22.6492 3.9925 21.4845 3.64513C20.3439 1.90576 18.7744 1.13587 16.7755 1.33671C13.778 1.63797 12.6816 4.5786 13.0043 8.38387C8.38242 10.7207 4.75843 6.68934 2.89021 3.64513C2.26621 6.0426 1.66495 8.92134 2.89021 12.1051C3.70748 14.2285 5.67232 16.0228 8.78348 17.49C5.63 19.1984 3.03548 19.8597 0.999268 19.4712Z" stroke="#8A91A8" stroke-width="1.68421" stroke-linejoin="round"/>
</svg>
